<?xml version="1.0" encoding="UTF-8"?>
<svg xmlns="http://www.w3.org/2000/svg" xmlns:xlink="http://www.w3.org/1999/xlink" width="37pt" height="37pt" viewBox="0 0 37 37" version="1.1">
<g id="surface1">
<path style=" stroke:none;fill-rule:nonzero;fill:rgb(0%,0%,0%);fill-opacity:1;" d="M 10.570312 7.671875 C 10.535156 7.746094 10.40625 8.441406 10.296875 9.230469 C 10.1875 10.019531 9.929688 10.996094 9.726562 11.417969 C 9.527344 11.835938 9.359375 12.464844 9.359375 12.792969 C 9.359375 13.324219 9.304688 13.398438 8.902344 13.398438 C 8.496094 13.398438 8.441406 13.472656 8.441406 14.132812 C 8.441406 14.847656 8.425781 14.867188 7.800781 14.867188 L 7.15625 14.867188 L 7.15625 17.253906 L 6.054688 17.253906 L 6.054688 27.238281 L 5.121094 26.335938 C 3.800781 25.035156 3.027344 23.636719 2.699219 21.878906 L 2.585938 21.289062 L 3.761719 21.289062 C 4.828125 21.289062 4.957031 21.253906 4.957031 20.921875 C 4.957031 20.59375 4.828125 20.554688 3.761719 20.554688 C 2.828125 20.554688 2.570312 20.5 2.570312 20.28125 C 2.570312 20.078125 2.769531 20.003906 3.304688 20.003906 C 3.910156 20.003906 4.039062 19.949219 4.039062 19.636719 C 4.039062 19.34375 3.910156 19.269531 3.394531 19.269531 C 2.625 19.269531 2.585938 19.011719 3.101562 17.542969 C 3.578125 16.207031 4.460938 14.941406 5.429688 14.261719 C 6.003906 13.855469 6.238281 13.5625 6.238281 13.25 L 6.238281 12.828125 L 5.652344 13.25 C 2.972656 15.140625 1.484375 18.664062 2.019531 21.804688 C 2.753906 26.171875 6.421875 29.363281 10.738281 29.363281 C 16.480469 29.363281 20.792969 23.820312 19.363281 18.296875 C 18.941406 16.648438 18.222656 15.433594 16.902344 14.132812 C 15.785156 13.011719 15.691406 12.976562 15.636719 13.378906 C 15.582031 13.726562 15.765625 14.003906 16.464844 14.609375 L 17.34375 15.378906 L 16.59375 15.289062 C 15.96875 15.214844 15.746094 15.269531 15.433594 15.582031 C 15.011719 16.003906 14.921875 16.519531 15.289062 16.519531 C 15.417969 16.519531 15.65625 16.351562 15.839844 16.152344 C 16.242188 15.675781 16.425781 15.691406 16.792969 16.1875 C 17.03125 16.554688 17.121094 16.574219 17.433594 16.371094 C 17.785156 16.152344 17.855469 16.226562 18.316406 17.199219 C 18.757812 18.152344 18.8125 18.480469 18.8125 20.28125 C 18.8125 21.804688 18.71875 22.519531 18.480469 23.164062 C 18.152344 24.003906 18.113281 24.042969 17.417969 24.042969 C 16.832031 24.042969 16.703125 24.097656 16.703125 24.410156 C 16.703125 24.683594 16.832031 24.777344 17.160156 24.777344 C 17.417969 24.777344 17.617188 24.851562 17.617188 24.941406 C 17.617188 25.015625 17.144531 25.585938 16.574219 26.171875 L 15.507812 27.253906 L 15.453125 22.261719 L 15.417969 17.269531 L 14.902344 17.214844 C 14.425781 17.160156 14.40625 17.105469 14.351562 16.003906 C 14.296875 14.882812 14.296875 14.867188 13.765625 14.867188 C 13.25 14.867188 13.214844 14.828125 13.214844 14.132812 C 13.214844 13.472656 13.175781 13.398438 12.753906 13.398438 C 12.351562 13.398438 12.296875 13.324219 12.296875 12.753906 C 12.296875 12.386719 12.128906 11.785156 11.929688 11.378906 C 11.730469 10.976562 11.472656 10.019531 11.363281 9.230469 C 11.15625 7.726562 11.085938 7.523438 10.828125 7.523438 C 10.738281 7.523438 10.628906 7.578125 10.570312 7.671875 Z M 11.011719 10.738281 C 11.011719 10.902344 11.140625 11.269531 11.289062 11.5625 L 11.578125 12.113281 L 10.078125 12.113281 L 10.371094 11.5625 C 10.515625 11.269531 10.644531 10.902344 10.644531 10.738281 C 10.644531 10.589844 10.738281 10.460938 10.828125 10.460938 C 10.9375 10.460938 11.011719 10.589844 11.011719 10.738281 Z M 11.746094 13.121094 C 11.746094 13.324219 11.523438 13.398438 10.828125 13.398438 C 10.132812 13.398438 9.910156 13.324219 9.910156 13.121094 C 9.910156 12.921875 10.132812 12.847656 10.828125 12.847656 C 11.523438 12.847656 11.746094 12.921875 11.746094 13.121094 Z M 12.664062 14.5 C 12.664062 14.867188 12.570312 14.882812 10.882812 14.828125 C 9.34375 14.773438 9.085938 14.71875 9.03125 14.445312 C 8.976562 14.167969 9.160156 14.132812 10.8125 14.132812 C 12.554688 14.132812 12.664062 14.148438 12.664062 14.5 Z M 13.671875 16.335938 L 13.671875 17.160156 L 12.625 17.214844 L 11.5625 17.269531 L 11.5625 28.632812 L 9.910156 28.632812 L 9.910156 17.253906 L 7.890625 17.253906 L 7.890625 15.398438 L 10.792969 15.453125 L 13.671875 15.507812 Z M 9.175781 19.914062 L 9.175781 22.023438 L 6.789062 22.023438 L 6.789062 17.800781 L 9.175781 17.800781 Z M 14.683594 19.914062 L 14.683594 22.023438 L 12.296875 22.023438 L 12.296875 17.800781 L 14.683594 17.800781 Z M 9.175781 25.511719 C 9.175781 28.832031 9.25 28.722656 7.691406 28.0625 L 6.789062 27.675781 L 6.789062 22.574219 L 9.175781 22.574219 Z M 14.683594 25.144531 L 14.683594 27.714844 L 14.003906 28.003906 C 13.617188 28.15625 13.085938 28.339844 12.808594 28.394531 L 12.296875 28.484375 L 12.296875 22.574219 L 14.683594 22.574219 Z M 14.683594 25.144531 "/>
<path style=" stroke:none;fill-rule:nonzero;fill:rgb(0%,0%,0%);fill-opacity:1;" d="M 8.074219 16.425781 C 8.074219 16.757812 8.167969 16.886719 8.441406 16.886719 C 8.828125 16.886719 8.882812 16.738281 8.699219 16.261719 C 8.515625 15.800781 8.074219 15.914062 8.074219 16.425781 Z M 8.074219 16.425781 "/>
<path style=" stroke:none;fill-rule:nonzero;fill:rgb(0%,0%,0%);fill-opacity:1;" d="M 9.542969 16.425781 C 9.542969 16.757812 9.636719 16.886719 9.910156 16.886719 C 10.1875 16.886719 10.277344 16.757812 10.277344 16.425781 C 10.277344 16.097656 10.1875 15.96875 9.910156 15.96875 C 9.636719 15.96875 9.542969 16.097656 9.542969 16.425781 Z M 9.542969 16.425781 "/>
<path style=" stroke:none;fill-rule:nonzero;fill:rgb(0%,0%,0%);fill-opacity:1;" d="M 11.011719 16.425781 C 11.011719 16.757812 11.105469 16.886719 11.378906 16.886719 C 11.761719 16.886719 11.820312 16.738281 11.636719 16.261719 C 11.453125 15.800781 11.011719 15.914062 11.011719 16.425781 Z M 11.011719 16.425781 "/>
<path style=" stroke:none;fill-rule:nonzero;fill:rgb(0%,0%,0%);fill-opacity:1;" d="M 12.480469 16.425781 C 12.480469 16.757812 12.570312 16.886719 12.847656 16.886719 C 13.121094 16.886719 13.214844 16.757812 13.214844 16.425781 C 13.214844 16.097656 13.121094 15.96875 12.847656 15.96875 C 12.570312 15.96875 12.480469 16.097656 12.480469 16.425781 Z M 12.480469 16.425781 "/>
<path style=" stroke:none;fill-rule:nonzero;fill:rgb(0%,0%,0%);fill-opacity:1;" d="M 10.277344 17.984375 C 10.277344 18.222656 10.40625 18.351562 10.644531 18.351562 C 10.882812 18.351562 11.011719 18.222656 11.011719 17.984375 C 11.011719 17.75 10.882812 17.617188 10.644531 17.617188 C 10.40625 17.617188 10.277344 17.75 10.277344 17.984375 Z M 10.277344 17.984375 "/>
<path style=" stroke:none;fill-rule:nonzero;fill:rgb(0%,0%,0%);fill-opacity:1;" d="M 10.277344 19.363281 C 10.277344 19.691406 10.371094 19.820312 10.644531 19.820312 C 10.921875 19.820312 11.011719 19.691406 11.011719 19.363281 C 11.011719 19.03125 10.921875 18.902344 10.644531 18.902344 C 10.371094 18.902344 10.277344 19.03125 10.277344 19.363281 Z M 10.277344 19.363281 "/>
<path style=" stroke:none;fill-rule:nonzero;fill:rgb(0%,0%,0%);fill-opacity:1;" d="M 10.277344 20.921875 C 10.277344 21.160156 10.40625 21.289062 10.644531 21.289062 C 10.882812 21.289062 11.011719 21.160156 11.011719 20.921875 C 11.011719 20.683594 10.882812 20.554688 10.644531 20.554688 C 10.40625 20.554688 10.277344 20.683594 10.277344 20.921875 Z M 10.277344 20.921875 "/>
<path style=" stroke:none;fill-rule:nonzero;fill:rgb(0%,0%,0%);fill-opacity:1;" d="M 10.277344 22.300781 C 10.277344 22.628906 10.371094 22.757812 10.644531 22.757812 C 10.921875 22.757812 11.011719 22.628906 11.011719 22.300781 C 11.011719 21.96875 10.921875 21.839844 10.644531 21.839844 C 10.371094 21.839844 10.277344 21.96875 10.277344 22.300781 Z M 10.277344 22.300781 "/>
<path style=" stroke:none;fill-rule:nonzero;fill:rgb(0%,0%,0%);fill-opacity:1;" d="M 10.277344 23.675781 C 10.277344 23.875 10.316406 24.042969 10.351562 24.042969 C 10.386719 24.042969 10.554688 24.097656 10.71875 24.152344 C 10.9375 24.242188 11.011719 24.152344 11.011719 23.785156 C 11.011719 23.4375 10.921875 23.308594 10.644531 23.308594 C 10.40625 23.308594 10.277344 23.4375 10.277344 23.675781 Z M 10.277344 23.675781 "/>
<path style=" stroke:none;fill-rule:nonzero;fill:rgb(0%,0%,0%);fill-opacity:1;" d="M 10.277344 25.234375 C 10.277344 25.566406 10.371094 25.695312 10.644531 25.695312 C 10.921875 25.695312 11.011719 25.566406 11.011719 25.234375 C 11.011719 24.90625 10.921875 24.777344 10.644531 24.777344 C 10.371094 24.777344 10.277344 24.90625 10.277344 25.234375 Z M 10.277344 25.234375 "/>
<path style=" stroke:none;fill-rule:nonzero;fill:rgb(0%,0%,0%);fill-opacity:1;" d="M 10.277344 26.613281 C 10.277344 26.8125 10.316406 26.980469 10.351562 26.980469 C 10.386719 26.980469 10.554688 27.035156 10.71875 27.089844 C 10.9375 27.179688 11.011719 27.089844 11.011719 26.722656 C 11.011719 26.375 10.921875 26.246094 10.644531 26.246094 C 10.40625 26.246094 10.277344 26.375 10.277344 26.613281 Z M 10.277344 26.613281 "/>
<path style=" stroke:none;fill-rule:nonzero;fill:rgb(0%,0%,0%);fill-opacity:1;" d="M 10.277344 27.898438 C 10.277344 28.136719 10.40625 28.265625 10.644531 28.265625 C 10.882812 28.265625 11.011719 28.136719 11.011719 27.898438 C 11.011719 27.660156 10.882812 27.53125 10.644531 27.53125 C 10.40625 27.53125 10.277344 27.660156 10.277344 27.898438 Z M 10.277344 27.898438 "/>
<path style=" stroke:none;fill-rule:nonzero;fill:rgb(0%,0%,0%);fill-opacity:1;" d="M 7.15625 19.363281 C 7.15625 19.691406 7.25 19.820312 7.523438 19.820312 C 7.910156 19.820312 7.964844 19.675781 7.78125 19.195312 C 7.597656 18.738281 7.15625 18.847656 7.15625 19.363281 Z M 7.15625 19.363281 "/>
<path style=" stroke:none;fill-rule:nonzero;fill:rgb(0%,0%,0%);fill-opacity:1;" d="M 8.074219 19.363281 C 8.074219 19.691406 8.167969 19.820312 8.441406 19.820312 C 8.828125 19.820312 8.882812 19.675781 8.699219 19.195312 C 8.515625 18.738281 8.074219 18.847656 8.074219 19.363281 Z M 8.074219 19.363281 "/>
<path style=" stroke:none;fill-rule:nonzero;fill:rgb(0%,0%,0%);fill-opacity:1;" d="M 7.15625 20.921875 C 7.15625 21.179688 7.285156 21.289062 7.542969 21.289062 C 7.816406 21.289062 7.890625 21.214844 7.816406 20.996094 C 7.761719 20.832031 7.707031 20.664062 7.707031 20.628906 C 7.707031 20.59375 7.578125 20.554688 7.433594 20.554688 C 7.285156 20.554688 7.15625 20.722656 7.15625 20.921875 Z M 7.15625 20.921875 "/>
<path style=" stroke:none;fill-rule:nonzero;fill:rgb(0%,0%,0%);fill-opacity:1;" d="M 8.074219 20.921875 C 8.074219 21.179688 8.203125 21.289062 8.460938 21.289062 C 8.734375 21.289062 8.808594 21.214844 8.734375 20.996094 C 8.679688 20.832031 8.625 20.664062 8.625 20.628906 C 8.625 20.59375 8.496094 20.554688 8.351562 20.554688 C 8.203125 20.554688 8.074219 20.722656 8.074219 20.921875 Z M 8.074219 20.921875 "/>
<path style=" stroke:none;fill-rule:nonzero;fill:rgb(0%,0%,0%);fill-opacity:1;" d="M 12.480469 19.363281 C 12.480469 19.691406 12.570312 19.820312 12.847656 19.820312 C 13.121094 19.820312 13.214844 19.691406 13.214844 19.363281 C 13.214844 19.03125 13.121094 18.902344 12.847656 18.902344 C 12.570312 18.902344 12.480469 19.03125 12.480469 19.363281 Z M 12.480469 19.363281 "/>
<path style=" stroke:none;fill-rule:nonzero;fill:rgb(0%,0%,0%);fill-opacity:1;" d="M 13.800781 19.308594 C 13.894531 19.894531 14.316406 19.949219 14.316406 19.378906 C 14.316406 19.070312 14.222656 18.902344 14.023438 18.902344 C 13.839844 18.902344 13.765625 19.03125 13.800781 19.308594 Z M 13.800781 19.308594 "/>
<path style=" stroke:none;fill-rule:nonzero;fill:rgb(0%,0%,0%);fill-opacity:1;" d="M 13.765625 20.738281 C 13.765625 20.941406 13.894531 21.105469 14.039062 21.105469 C 14.1875 21.105469 14.316406 20.941406 14.316406 20.738281 C 14.316406 20.539062 14.1875 20.371094 14.039062 20.371094 C 13.894531 20.371094 13.765625 20.539062 13.765625 20.738281 Z M 13.765625 20.738281 "/>
<path style=" stroke:none;fill-rule:nonzero;fill:rgb(0%,0%,0%);fill-opacity:1;" d="M 12.480469 20.921875 C 12.480469 21.160156 12.609375 21.289062 12.847656 21.289062 C 13.085938 21.289062 13.214844 21.160156 13.214844 20.921875 C 13.214844 20.683594 13.085938 20.554688 12.847656 20.554688 C 12.609375 20.554688 12.480469 20.683594 12.480469 20.921875 Z M 12.480469 20.921875 "/>
<path style=" stroke:none;fill-rule:nonzero;fill:rgb(0%,0%,0%);fill-opacity:1;" d="M 7.15625 24.226562 C 7.15625 24.484375 7.285156 24.59375 7.542969 24.59375 C 7.816406 24.59375 7.890625 24.519531 7.816406 24.300781 C 7.761719 24.132812 7.707031 23.96875 7.707031 23.933594 C 7.707031 23.894531 7.578125 23.859375 7.433594 23.859375 C 7.285156 23.859375 7.15625 24.027344 7.15625 24.226562 Z M 7.15625 24.226562 "/>
<path style=" stroke:none;fill-rule:nonzero;fill:rgb(0%,0%,0%);fill-opacity:1;" d="M 8.074219 24.226562 C 8.074219 24.484375 8.203125 24.59375 8.460938 24.59375 C 8.734375 24.59375 8.808594 24.519531 8.734375 24.300781 C 8.679688 24.132812 8.625 23.96875 8.625 23.933594 C 8.625 23.894531 8.496094 23.859375 8.351562 23.859375 C 8.203125 23.859375 8.074219 24.027344 8.074219 24.226562 Z M 8.074219 24.226562 "/>
<path style=" stroke:none;fill-rule:nonzero;fill:rgb(0%,0%,0%);fill-opacity:1;" d="M 7.15625 25.675781 C 7.15625 26.042969 7.632812 26.335938 7.800781 26.0625 C 7.945312 25.824219 7.691406 25.328125 7.414062 25.328125 C 7.265625 25.328125 7.15625 25.492188 7.15625 25.675781 Z M 7.15625 25.675781 "/>
<path style=" stroke:none;fill-rule:nonzero;fill:rgb(0%,0%,0%);fill-opacity:1;" d="M 8.074219 25.675781 C 8.074219 26.042969 8.550781 26.335938 8.71875 26.0625 C 8.863281 25.824219 8.609375 25.328125 8.332031 25.328125 C 8.183594 25.328125 8.074219 25.492188 8.074219 25.675781 Z M 8.074219 25.675781 "/>
<path style=" stroke:none;fill-rule:nonzero;fill:rgb(0%,0%,0%);fill-opacity:1;" d="M 7.15625 27.164062 C 7.15625 27.421875 7.285156 27.53125 7.542969 27.53125 C 7.816406 27.53125 7.890625 27.457031 7.816406 27.238281 C 7.761719 27.070312 7.707031 26.90625 7.707031 26.871094 C 7.707031 26.832031 7.578125 26.796875 7.433594 26.796875 C 7.285156 26.796875 7.15625 26.960938 7.15625 27.164062 Z M 7.15625 27.164062 "/>
<path style=" stroke:none;fill-rule:nonzero;fill:rgb(0%,0%,0%);fill-opacity:1;" d="M 8.074219 27.164062 C 8.074219 27.421875 8.203125 27.53125 8.460938 27.53125 C 8.734375 27.53125 8.808594 27.457031 8.734375 27.238281 C 8.679688 27.070312 8.625 26.90625 8.625 26.871094 C 8.625 26.832031 8.496094 26.796875 8.351562 26.796875 C 8.203125 26.796875 8.074219 26.960938 8.074219 27.164062 Z M 8.074219 27.164062 "/>
<path style=" stroke:none;fill-rule:nonzero;fill:rgb(0%,0%,0%);fill-opacity:1;" d="M 13.949219 23.308594 C 13.949219 23.507812 14.078125 23.675781 14.222656 23.675781 C 14.371094 23.675781 14.5 23.507812 14.5 23.308594 C 14.5 23.109375 14.371094 22.941406 14.222656 22.941406 C 14.078125 22.941406 13.949219 23.109375 13.949219 23.308594 Z M 13.949219 23.308594 "/>
<path style=" stroke:none;fill-rule:nonzero;fill:rgb(0%,0%,0%);fill-opacity:1;" d="M 12.480469 24.226562 C 12.480469 24.464844 12.609375 24.59375 12.847656 24.59375 C 13.085938 24.59375 13.214844 24.464844 13.214844 24.226562 C 13.214844 23.988281 13.085938 23.859375 12.847656 23.859375 C 12.609375 23.859375 12.480469 23.988281 12.480469 24.226562 Z M 12.480469 24.226562 "/>
<path style=" stroke:none;fill-rule:nonzero;fill:rgb(0%,0%,0%);fill-opacity:1;" d="M 13.949219 24.777344 C 13.949219 24.976562 14.078125 25.144531 14.222656 25.144531 C 14.371094 25.144531 14.5 24.976562 14.5 24.777344 C 14.5 24.574219 14.371094 24.410156 14.222656 24.410156 C 14.078125 24.410156 13.949219 24.574219 13.949219 24.777344 Z M 13.949219 24.777344 "/>
<path style=" stroke:none;fill-rule:nonzero;fill:rgb(0%,0%,0%);fill-opacity:1;" d="M 12.480469 25.695312 C 12.480469 25.894531 12.515625 26.0625 12.554688 26.0625 C 12.589844 26.0625 12.753906 26.117188 12.921875 26.171875 C 13.140625 26.261719 13.214844 26.171875 13.214844 25.804688 C 13.214844 25.457031 13.121094 25.328125 12.847656 25.328125 C 12.609375 25.328125 12.480469 25.457031 12.480469 25.695312 Z M 12.480469 25.695312 "/>
<path style=" stroke:none;fill-rule:nonzero;fill:rgb(0%,0%,0%);fill-opacity:1;" d="M 13.949219 26.0625 C 13.949219 26.261719 14.078125 26.429688 14.222656 26.429688 C 14.371094 26.429688 14.5 26.261719 14.5 26.0625 C 14.5 25.859375 14.371094 25.695312 14.222656 25.695312 C 14.078125 25.695312 13.949219 25.859375 13.949219 26.0625 Z M 13.949219 26.0625 "/>
<path style=" stroke:none;fill-rule:nonzero;fill:rgb(0%,0%,0%);fill-opacity:1;" d="M 12.480469 27.164062 C 12.480469 27.402344 12.609375 27.53125 12.847656 27.53125 C 13.085938 27.53125 13.214844 27.402344 13.214844 27.164062 C 13.214844 26.925781 13.085938 26.796875 12.847656 26.796875 C 12.609375 26.796875 12.480469 26.925781 12.480469 27.164062 Z M 12.480469 27.164062 "/>
<path style=" stroke:none;fill-rule:nonzero;fill:rgb(0%,0%,0%);fill-opacity:1;" d="M 20.1875 16.335938 L 20.1875 20.226562 L 21.566406 20.152344 C 23.253906 20.078125 23.691406 19.746094 23.804688 18.40625 C 23.914062 17.359375 23.636719 16.554688 23.125 16.371094 C 22.757812 16.226562 22.757812 16.226562 23.214844 15.785156 C 23.582031 15.433594 23.675781 15.179688 23.675781 14.40625 C 23.675781 13.046875 23.199219 12.644531 21.472656 12.515625 L 20.1875 12.425781 Z M 22.390625 13.746094 C 22.648438 14.242188 22.628906 15.289062 22.355469 15.5625 C 22.222656 15.691406 21.949219 15.785156 21.710938 15.785156 C 21.308594 15.785156 21.289062 15.710938 21.289062 14.589844 C 21.289062 13.453125 21.308594 13.398438 21.75 13.398438 C 22.007812 13.398438 22.28125 13.542969 22.390625 13.746094 Z M 22.464844 17.105469 C 23.085938 17.984375 22.628906 19.453125 21.730469 19.453125 C 21.308594 19.453125 21.289062 19.417969 21.289062 18.078125 C 21.289062 16.738281 21.308594 16.703125 21.730469 16.703125 C 21.988281 16.703125 22.316406 16.886719 22.464844 17.105469 Z M 22.464844 17.105469 "/>
<path style=" stroke:none;fill-rule:nonzero;fill:rgb(0%,0%,0%);fill-opacity:1;" d="M 24.960938 16.335938 L 24.960938 20.1875 L 26.0625 20.1875 L 26.0625 12.480469 L 24.960938 12.480469 Z M 24.960938 16.335938 "/>
<path style=" stroke:none;fill-rule:nonzero;fill:rgb(0%,0%,0%);fill-opacity:1;" d="M 27.972656 12.699219 C 27.199219 13.066406 26.941406 14.332031 27.421875 15.269531 C 27.566406 15.527344 28.097656 16.261719 28.613281 16.886719 C 29.347656 17.75 29.546875 18.152344 29.546875 18.628906 C 29.546875 19.140625 29.472656 19.289062 29.105469 19.378906 C 28.484375 19.527344 28.28125 19.363281 28.15625 18.519531 C 28.042969 17.910156 27.972656 17.800781 27.605469 17.800781 C 27.21875 17.800781 27.164062 17.894531 27.164062 18.554688 C 27.164062 19.546875 27.402344 19.929688 28.15625 20.1875 C 28.90625 20.425781 29.675781 20.28125 30.246094 19.765625 C 30.558594 19.472656 30.648438 19.195312 30.648438 18.519531 C 30.648438 17.65625 30.484375 17.382812 28.578125 14.941406 C 28.371094 14.683594 28.265625 14.296875 28.300781 14.003906 C 28.355469 13.5625 28.449219 13.488281 28.90625 13.488281 C 29.402344 13.488281 29.472656 13.5625 29.640625 14.277344 C 29.769531 14.921875 29.878906 15.050781 30.191406 15.011719 C 30.484375 14.976562 30.574219 14.792969 30.613281 14.1875 C 30.667969 13.542969 30.574219 13.304688 30.207031 12.9375 C 29.714844 12.441406 28.707031 12.332031 27.972656 12.699219 Z M 27.972656 12.699219 "/>
<path style=" stroke:none;fill-rule:nonzero;fill:rgb(0%,0%,0%);fill-opacity:1;" d="M 31.199219 12.9375 C 31.199219 13.34375 31.273438 13.398438 31.84375 13.398438 L 32.484375 13.398438 L 32.484375 20.1875 L 33.585938 20.1875 L 33.585938 13.398438 L 34.230469 13.398438 C 34.796875 13.398438 34.871094 13.34375 34.871094 12.9375 L 34.871094 12.480469 L 31.199219 12.480469 Z M 31.199219 12.9375 "/>
</g>
</svg>
